<?xml version="1.0" standalone="no"?>
<!DOCTYPE svg PUBLIC "-//W3C//DTD SVG 20010904//EN"
 "http://www.w3.org/TR/2001/REC-SVG-20010904/DTD/svg10.dtd">
<svg version="1.0" xmlns="http://www.w3.org/2000/svg"
 width="517.000000pt" height="596.000000pt" viewBox="0 0 517.000000 596.000000"
 preserveAspectRatio="xMidYMid meet">
<metadata>
Created by potrace 1.15, written by Peter Selinger 2001-2017
</metadata>
<g transform="translate(0.000000,596.000000) scale(0.100000,-0.100000)"
fill="#000000" stroke="none">
<path d="M1292 5214 l-1292 -746 0 -1492 0 -1491 1280 -738 c704 -407 1289
-741 1299 -744 12 -3 471 257 1305 738 l1286 743 -2 1494 -3 1495 -1280 740
c-704 406 -1285 741 -1290 743 -6 2 -592 -332 -1303 -742z m2527 -114 l1221
-705 -3 -1419 -2 -1419 -1218 -703 c-671 -387 -1224 -704 -1230 -704 -6 0
-561 318 -1234 706 l-1223 706 2 1416 3 1417 1225 707 c674 389 1228 707 1231
705 4 -1 556 -319 1228 -707z"/>
<path d="M1188 4033 c-45 -4 -47 -5 -52 -41 -11 -71 -26 -296 -26 -393 0 -88
2 -99 18 -99 11 0 32 28 60 78 103 188 207 287 405 388 115 59 118 61 87 68
-33 6 -406 5 -492 -1z"/>
<path d="M3068 4023 c-309 -3 -358 -5 -358 -18 0 -13 26 -15 171 -15 l172 0
-71 -74 c-135 -142 -135 -140 -132 -1136 2 -432 2 -793 1 -802 -1 -15 -12 -18
-63 -19 -35 -1 -74 -4 -88 -8 -50 -14 73 -34 179 -29 211 12 324 98 367 283
14 62 16 172 14 928 l-1 857 100 0 c99 0 129 10 92 29 -11 6 -21 10 -23 9 -2
-2 -164 -4 -360 -5z"/>
<path d="M2270 3999 c-58 -11 -107 -63 -174 -185 -62 -111 -817 -1424 -937
-1630 -82 -141 -129 -233 -129 -255 0 -11 339 -11 398 0 81 16 78 12 377 541
162 287 391 685 650 1135 54 94 125 215 157 271 32 56 58 109 58 118 0 14 -19
16 -177 15 -98 -1 -198 -5 -223 -10z"/>
<path d="M4115 2452 c-77 -129 -130 -199 -214 -282 -78 -78 -115 -106 -201
-152 -193 -104 -208 -93 134 -96 164 -1 301 -1 303 1 2 2 2 130 1 283 l-3 279
-20 -33z"/>
<path d="M2580 2372 c-63 -110 -183 -241 -288 -311 -66 -44 -198 -111 -219
-111 -7 0 -13 -5 -13 -10 0 -12 563 -10 574 1 10 10 26 220 29 379 3 184 -6
189 -83 52z"/>
</g>
</svg>
